<?xml version="1.0" encoding="UTF-8"?>
<svg xmlns="http://www.w3.org/2000/svg" viewBox="0 0 100 80" width="104" height="84">
<rect x="7" y="20" width="86" height="43" rx="8" fill="#ffffff" stroke="#2c2c2a" stroke-width="1.8" vector-effect="non-scaling-stroke"/>
<rect x="7" y="49" width="86" height="14" rx="0" fill="#f5e8ea" stroke="none" stroke-width="1.8" vector-effect="non-scaling-stroke"/>
<line x1="7" y1="49" x2="93" y2="49" fill="none" stroke="#918f8a" stroke-width="1.2" stroke-linecap="round" vector-effect="non-scaling-stroke"/>
<circle cx="17" cy="56" r="1.9" fill="#a6192e" stroke="none" stroke-width="1.8" vector-effect="non-scaling-stroke"/>
<circle cx="24" cy="56" r="1.9" fill="#918f8a" stroke="none" stroke-width="1.8" vector-effect="non-scaling-stroke"/>
<rect x="66" y="53" width="8" height="5" rx="1" fill="#ffffff" stroke="#918f8a" stroke-width="1.2" vector-effect="non-scaling-stroke"/>
<rect x="76" y="53" width="8" height="5" rx="1" fill="#ffffff" stroke="#918f8a" stroke-width="1.2" vector-effect="non-scaling-stroke"/>
<rect x="86" y="53" width="8" height="5" rx="1" fill="#ffffff" stroke="#918f8a" stroke-width="1.2" vector-effect="non-scaling-stroke"/>
<path d="M30 33 Q50 15 70 33" fill="none" stroke="#a6192e" stroke-width="2" stroke-linecap="round" stroke-linejoin="round" vector-effect="non-scaling-stroke"/>
<path d="M38 38 Q50 26 62 38" fill="none" stroke="#a6192e" stroke-width="2" stroke-linecap="round" stroke-linejoin="round" vector-effect="non-scaling-stroke"/>
<circle cx="50" cy="43" r="2.4" fill="#a6192e" stroke="none" stroke-width="1.8" vector-effect="non-scaling-stroke"/>
<circle cx="35" cy="42" r="3" fill="#a6192e" stroke="none" stroke-width="1.8" vector-effect="non-scaling-stroke"/>
<circle cx="50" cy="42" r="3" fill="#a6192e" stroke="none" stroke-width="1.8" vector-effect="non-scaling-stroke"/>
<circle cx="65" cy="42" r="3" fill="#a6192e" stroke="none" stroke-width="1.8" vector-effect="non-scaling-stroke"/>
</svg>
